<svg xmlns="http://www.w3.org/2000/svg" width="4000" height="4000" viewBox="0 0 400 400">
  <defs>
    <style>
      .cls-1, .cls-2, .cls-3 {
        fill: none;
        fill-rule: evenodd;
      }

      .cls-1 {
        stroke: #000;
        stroke-width: 9px;
      }

      .cls-2, .cls-3 {
        stroke: #f0871d;
      }

      .cls-2 {
        stroke-width: 2.5px;
      }

      .cls-3 {
        stroke-width: 10px;
      }
    </style>
  </defs>
  <path id="形状_1" data-name="形状 1" class="cls-1" d="M96,57c-1.928,2.507-9.338,9.146-9.338,23.122C86.663,105.746,86,186.224,86,200V314c0.427,9.781,2.409,16.977,8,21,6.614,7.092,11.386,12.045,15,16,0.477,7.092-.023,6.3,1,11s4.431,8,9,11c5.114,2.659,8.651,13,81,13,45.96,0.068,69.931-4,79-10a43.232,43.232,0,0,0,12-14c0.845-5.013,1.227-6.615,2-12,2.691-3.839,11.613-10.181,17-17a59.891,59.891,0,0,0,6-19V77c-0.652-5.285-4.081-12.759-6-16-13-20-45.629-28.05-68-35-2.462-1.376-7.756-3.842-10-5s-15.638-4-32-4-27.19,2.421-29,3-4.973,3.552-7,5C159.656,28.548,109.254,35.446,96,57Z"/>
  <path id="形状_3" data-name="形状 3" class="cls-2" d="M115,277h28l6-13-5-14H115l-4-14,4-13h28l6-13-5-14H115l-5-14,6-13h27l6-9-12-18H116l-6-14,8-16h23l7,12-11,18"/>
  <path id="形状_5" data-name="形状 5" class="cls-2" d="M266,275l-10-15,6-12h27l5-13-6-14H261l-6-13,6-14h28l5-13-6-14H260l-5-14,6-13h28"/>
  <path id="形状_4" data-name="形状 4" class="cls-2" d="M172,138l-13,20,6,11h27l5,8-15,23,7,8h27l4,9-14,23,7,8h27l3,10-14,22,10,12,16,1,11-18h23"/>
  <path id="形状_2" data-name="形状 2" class="cls-3" d="M116,277l-7,14,10,16h20l10-16-7-13,7-14-7-14,8-14-8-13,7-14-7-13,8-14-8-13,7-10h10l6,10-7,13,8,18h17l6,8-8,15,11,16h15l5,9-6,14,9,17h15l9,14h16l8,13h21l10-17-7-13,7-14-7-13,7-14-7-14,7-13-7-14,6-13-6-14,7-14-7-13,7-13-9-17H264l-10,16,7,14-8,13,8,14-8,14,8,13-7,14,7,13-8,13,8,14-6,10H243l-5-10,7-14-9-17H220l-6-8,8-13-10-18H196l-6-9,8-13-10-18H171l-8-14H147l-8-13H119l-10,17,8,14-8,14,8,12-8,14,7,14-7,13,7,14-6,13,6,13-7,14Z"/>
</svg>
